<?xml version="1.0" standalone="no"?>
<!DOCTYPE svg PUBLIC "-//W3C//DTD SVG 20010904//EN"
 "http://www.w3.org/TR/2001/REC-SVG-20010904/DTD/svg10.dtd">
<svg version="1.0" xmlns="http://www.w3.org/2000/svg"
 width="700.000000pt" height="700.000000pt" viewBox="0 0 700.000000 700.000000"
 preserveAspectRatio="xMidYMid meet">
<metadata>
Created by potrace 1.11, written by Peter Selinger 2001-2013
</metadata>
<g transform="translate(0.000000,700.000000) scale(0.100000,-0.100000)"
fill="#000000" stroke="none">
<path d="M3330 6944 c-242 -21 -310 -28 -410 -45 -959 -166 -1795 -719 -2325
-1539 -160 -249 -264 -466 -364 -762 -124 -367 -176 -691 -176 -1098 1 -371
34 -618 132 -960 209 -732 681 -1398 1313 -1850 408 -292 887 -493 1390 -584
227 -41 342 -50 605 -50 421 0 735 49 1106 174 526 177 942 440 1354 854 191
192 276 296 424 518 470 705 659 1564 531 2413 -16 110 -36 223 -45 250 -8 28
-33 115 -55 195 -154 546 -458 1059 -875 1475 -556 558 -1269 902 -2045 990
-133 15 -473 27 -560 19z m593 -248 c879 -125 1634 -570 2165 -1278 142 -189
310 -486 393 -693 26 -65 119 -333 119 -342 0 -1 -51 24 -112 57 -254 133
-633 242 -923 265 -91 7 -353 -9 -495 -30 -144 -22 -211 -45 -455 -155 -163
-74 -218 -104 -401 -216 -66 -41 -124 -74 -127 -74 -4 0 -39 25 -79 56 -78 60
-220 133 -309 159 l-56 15 28 158 c15 86 38 217 50 290 12 72 26 132 31 132 5
0 161 -38 348 -85 l340 -85 537 0 538 0 28 -35 c16 -20 43 -39 66 -46 34 -10
45 -9 83 9 71 35 97 106 63 172 -25 47 -62 70 -116 70 -44 0 -53 -4 -89 -40
l-40 -40 -420 2 -419 3 270 157 c262 152 270 156 297 142 57 -29 131 -4 164
57 22 42 23 71 2 115 -55 116 -222 86 -243 -44 -6 -33 -17 -40 -305 -208 -165
-96 -301 -172 -303 -170 -2 2 28 96 68 207 39 112 76 216 81 232 6 15 17 27
25 27 25 0 69 31 88 62 38 66 11 149 -61 183 -49 23 -95 13 -139 -31 -30 -30
-35 -41 -35 -81 0 -27 8 -58 19 -77 l19 -31 -92 -263 c-51 -144 -95 -264 -97
-267 -4 -3 -649 154 -657 160 -2 2 34 119 80 260 l83 257 42 20 c100 47 111
173 20 228 -62 38 -137 19 -176 -43 -27 -44 -27 -79 1 -134 l22 -44 -79 -242
c-43 -133 -82 -249 -87 -258 -7 -15 -34 -9 -238 50 l-230 66 0 248 0 248 35
34 c43 44 53 90 30 139 -24 50 -68 79 -120 79 -47 0 -79 -18 -106 -60 -36 -54
-16 -145 38 -174 l23 -12 0 -287 0 -287 266 -76 c147 -42 268 -78 270 -80 2
-2 -18 -134 -46 -293 -27 -158 -50 -290 -50 -291 0 -2 -48 -3 -107 -3 -123 0
-255 -24 -352 -64 -36 -14 -68 -23 -73 -18 -4 4 -45 82 -91 173 -92 180 -140
304 -164 419 -32 154 5 581 68 785 34 112 162 399 239 540 40 72 113 192 164
268 l91 139 245 -6 c135 -3 293 -12 353 -20z m-2050 -1517 c24 -5 60 -26 82
-44 l40 -34 -110 0 c-60 0 -130 4 -155 7 -43 7 -45 8 -48 45 l-3 37 76 0 c42
0 95 -5 118 -11z m88 -343 c19 -8 53 -35 75 -60 l41 -46 -31 0 c-19 0 -56 16
-94 41 -62 39 -63 41 -46 60 20 23 14 22 55 5z m-591 -158 c0 -4 -11 -2 -25 4
-20 9 -25 18 -25 47 l1 36 24 -40 c14 -22 25 -43 25 -47z m4091 -759 l256 -62
37 28 c114 86 260 -41 186 -162 -45 -74 -139 -83 -197 -19 -18 20 -33 44 -33
55 0 17 -29 26 -232 75 -127 31 -235 53 -239 49 -8 -10 -159 -518 -159 -537 0
-16 3 -17 274 -100 l178 -55 32 24 c64 49 154 27 191 -45 57 -110 -74 -226
-181 -161 -27 16 -64 73 -64 98 0 7 -417 142 -454 147 -8 1 -237 -594 -231
-602 1 -1 125 11 276 28 151 16 280 30 287 30 6 0 12 7 12 15 0 8 16 30 35 50
30 30 42 35 81 35 56 0 99 -24 119 -66 20 -43 19 -83 -5 -121 -48 -80 -150
-84 -211 -9 -16 20 -18 20 -283 -9 -146 -15 -266 -31 -265 -34 0 -3 76 -67
168 -142 l169 -137 64 5 c62 5 65 4 100 -29 65 -60 57 -155 -16 -199 -88 -54
-206 20 -194 120 5 36 3 37 -126 143 -72 58 -155 125 -184 148 l-52 42 0 -434
0 -434 30 -17 c85 -51 76 -178 -16 -222 -45 -21 -92 -14 -133 21 -61 51 -59
141 4 191 l35 28 0 473 0 473 125 336 c68 186 123 338 122 339 -1 1 -313 46
-694 101 l-692 100 -21 -30 c-44 -59 -149 -76 -210 -34 -105 70 -97 223 14
276 23 12 55 21 71 21 69 0 155 -71 155 -128 0 -11 5 -24 11 -28 10 -6 1392
-205 1395 -201 1 1 43 143 94 315 52 171 99 312 104 312 6 0 126 -27 267 -61z
m-5061 -523 c0 -8 14 -19 31 -25 41 -14 39 -15 39 10 0 11 5 17 10 14 6 -3 10
-21 10 -40 0 -31 -3 -34 -38 -40 -26 -4 -52 -1 -80 10 -35 15 -42 22 -42 45 0
30 10 38 48 39 13 1 22 -5 22 -13z m2623 -712 c42 -21 56 -32 51 -44 -3 -8
-78 -226 -166 -485 -146 -430 -162 -483 -184 -619 -13 -82 -22 -151 -21 -153
2 -2 36 54 75 125 65 116 85 169 238 617 91 270 168 491 169 493 2 2 40 -4 85
-12 198 -38 422 -4 602 92 l67 35 45 -37 c51 -42 88 -92 134 -181 112 -219
155 -470 156 -930 l1 -250 -32 -95 c-58 -177 -85 -245 -148 -377 -68 -143 -98
-188 -279 -426 l-120 -157 -191 0 c-303 0 -518 26 -797 96 -978 246 -1781 936
-2181 1875 -50 118 -120 319 -113 326 3 3 40 -8 83 -25 160 -61 242 -79 478
-106 215 -25 346 -35 641 -47 394 -16 499 -2 674 93 77 42 346 208 459 284
l64 43 76 -54 c42 -29 102 -66 134 -81z"/>
<path d="M2147 1600 c-78 -15 -127 -77 -127 -162 l0 -48 -45 0 -45 0 0 -40 0
-40 45 0 45 0 0 -245 0 -245 45 0 45 0 0 245 0 245 81 0 80 0 -3 38 -3 37 -79
3 -78 3 7 46 c4 25 9 51 12 59 7 18 59 34 114 34 l49 0 0 40 0 40 -52 -1 c-29
-1 -70 -5 -91 -9z"/>
<path d="M3737 1603 c-4 -3 -7 -69 -7 -147 l0 -140 -27 27 c-62 58 -162 74
-240 36 -174 -84 -191 -410 -28 -535 30 -22 50 -29 100 -32 77 -5 122 9 163
49 l32 31 0 -36 0 -36 50 0 50 0 0 395 0 395 -43 0 c-24 0 -47 -3 -50 -7z
m-87 -306 c52 -34 73 -79 78 -166 5 -95 -10 -152 -52 -198 -28 -31 -40 -37
-87 -40 -66 -6 -111 20 -143 82 -32 61 -30 193 4 259 42 83 131 111 200 63z"/>
<path d="M3153 1389 c-18 -5 -48 -24 -67 -43 l-36 -33 0 39 0 39 -47 -3 -48
-3 -3 -282 -2 -283 49 0 49 0 4 193 c3 214 10 240 71 278 26 16 45 19 100 17
l68 -4 -3 46 -3 45 -50 2 c-27 1 -64 -3 -82 -8z"/>
<path d="M2283 1378 c3 -7 55 -134 116 -281 l110 -268 -23 -52 c-33 -74 -48
-87 -107 -87 l-49 0 0 -41 0 -41 76 4 c75 3 77 4 113 45 29 32 66 113 174 381
75 188 137 343 137 346 0 3 -22 6 -49 6 l-49 0 -88 -220 -88 -220 -87 217 -87
218 -52 3 c-40 2 -51 0 -47 -10z"/>
</g>
</svg>
